<?xml version="1.0" encoding="utf-8"?>
<!-- Generator: Adobe Illustrator 16.0.4, SVG Export Plug-In . SVG Version: 6.00 Build 0)  -->
<!DOCTYPE svg PUBLIC "-//W3C//DTD SVG 1.1//EN" "http://www.w3.org/Graphics/SVG/1.1/DTD/svg11.dtd">
<svg version="1.1" id="Layer_1" xmlns="http://www.w3.org/2000/svg" xmlns:xlink="http://www.w3.org/1999/xlink" x="0px" y="0px"
	 width="150px" height="40px" viewBox="0 0 150 40" enable-background="new 0 0 150 40" xml:space="preserve">
<g>
	<g>
		<g>
			<path fill="#FFFFFF" d="M15.081,37.466H1.048v-2.363h2.459V3.662H1V1.299h7.763v2.363H6.304v31.44h5.979V23.867h2.797V37.466z"/>
			<path fill="#FFFFFF" d="M18.552,35.103l4.581-33.803h3.954l4.581,33.803h2.507v2.363h-7.763v-2.363h2.459l-1.495-11.332h-4.533
				l-1.495,11.332h2.459v2.363h-7.764v-2.363H18.552z M27.232,21.697l-1.157-8.824L25.11,3.325l-0.964,9.548l-1.157,8.824H27.232z"
				/>
			<path fill="#FFFFFF" d="M47.437,37.466h-9.645v-2.363h3.424V3.662h-5.449v10.464H32.97V1.299h19.289v12.827h-2.797V3.662h-5.449
				v31.44h3.424V37.466z"/>
			<path fill="#FFFFFF" d="M65.182,3.662h-5.979v14.611h5.16v2.314h-5.16v14.515h5.979v-10.56h2.797v12.923H53.946v-2.363h2.459
				V3.662h-2.459V1.299h14.033v12.875h-2.797V3.662z"/>
		</g>
	</g>
	<g>
		<path fill="#FFFFFF" d="M72.038,1.179h6.756v2.753h-1.292v3.148h3.96V3.932h-1.228V1.179h6.775v2.753h-1.21v9.071h1.21v2.752
			h-6.775v-2.752h1.228V9.854h-3.96v3.148h1.292v2.752h-6.756v-2.752h1.146V3.932h-1.146V1.179z"/>
		<path fill="#FFFFFF" d="M105.215,15.755h-8.361v-2.732h1.98l-0.439-1.417h-4.274l-0.438,1.417h1.626v2.732h-6.63v-2.732h1.417
			l2.815-9.154h-0.854v-2.69h8.007l3.69,11.844h1.461V15.755z M94.891,9.103h2.733L96.247,4.6L94.891,9.103z"/>
		<path fill="#FFFFFF" d="M106.881,1.179h6.757c1.21,0,2.191,0.123,2.939,0.366c0.751,0.242,1.335,0.57,1.752,0.979
			c0.417,0.41,0.699,0.883,0.845,1.418c0.146,0.535,0.218,1.102,0.218,1.7c0,0.694-0.144,1.299-0.437,1.813
			c-0.293,0.514-0.688,0.942-1.189,1.283c-0.5,0.34-1.08,0.597-1.741,0.771c-0.659,0.173-1.366,0.262-2.116,0.262h-1.586v3.231
			h1.273v2.752h-6.716v-2.752h1.17V3.911h-1.17V1.179z M112.324,3.89v3.629h0.94c0.611,0,1.105-0.15,1.48-0.449
			c0.375-0.299,0.561-0.726,0.561-1.282c0-0.625-0.168-1.099-0.509-1.418c-0.341-0.32-0.818-0.479-1.429-0.479H112.324z"/>
		<path fill="#FFFFFF" d="M121.062,1.179h6.756c1.208,0,2.189,0.123,2.94,0.366c0.75,0.242,1.333,0.57,1.75,0.979
			c0.417,0.41,0.699,0.883,0.847,1.418c0.144,0.535,0.218,1.102,0.218,1.7c0,0.694-0.146,1.299-0.438,1.813
			c-0.291,0.514-0.688,0.942-1.188,1.283c-0.501,0.34-1.082,0.597-1.741,0.771c-0.663,0.173-1.367,0.262-2.118,0.262h-1.583v3.231
			h1.27v2.752h-6.712v-2.752h1.166V3.911h-1.166V1.179z M126.505,3.89v3.629h0.936c0.613,0,1.107-0.15,1.482-0.449
			c0.375-0.299,0.561-0.726,0.561-1.282c0-0.625-0.17-1.099-0.509-1.418c-0.341-0.32-0.818-0.479-1.429-0.479H126.505z"/>
		<path fill="#FFFFFF" d="M142.498,7.748c0.014-0.097,0.052-0.222,0.115-0.375c0.061-0.153,0.132-0.313,0.208-0.479
			c0.077-0.167,0.155-0.334,0.239-0.501c0.084-0.167,0.153-0.312,0.209-0.438l1.147-2.106h-1.147V1.179h5.609v2.669h-1.128
			l-3.855,6.777v2.419h1.166v2.71h-6.672v-2.71h1.189v-2.46l-4.046-6.736h-1.023V1.179h7.132v2.669h-1.084l1.21,2.211
			c0.027,0.098,0.073,0.223,0.136,0.375c0.062,0.153,0.128,0.312,0.197,0.48c0.069,0.167,0.132,0.327,0.188,0.479
			c0.056,0.153,0.098,0.271,0.125,0.354H142.498z"/>
	</g>
	<path fill="#FFFFFF" d="M71.924,19.242h8.444v3.44h-1.614v3.937h4.951v-3.937h-1.536v-3.44h8.471v3.44h-1.511v11.338h1.511v3.44
		h-8.471v-3.44h1.536v-3.936h-4.951v3.936h1.614v3.44h-8.444v-3.44h1.434V22.682h-1.434V19.242z"/>
	<path fill="#FFFFFF" d="M110.708,19.242h8.291v3.362h-1.408v5.63c0,1.043,0.056,1.894,0.168,2.555
		c0.113,0.66,0.282,1.177,0.509,1.55c0.224,0.375,0.498,0.63,0.82,0.77c0.324,0.139,0.691,0.208,1.109,0.208
		c0.4,0,0.758-0.056,1.082-0.169c0.322-0.112,0.6-0.348,0.833-0.704c0.236-0.355,0.414-0.869,0.534-1.537
		c0.123-0.669,0.184-1.568,0.184-2.698v-5.526h-1.408v-3.44h7.714v3.362h-1.408v6.334c0,3.094-0.634,5.361-1.902,6.804
		c-1.27,1.443-3.127,2.163-5.579,2.163c-2.641-0.087-4.648-0.838-6.021-2.255c-1.373-1.416-2.059-3.61-2.059-6.582V22.63h-1.461
		V19.242z"/>
	<path fill="#FFFFFF" d="M130.701,19.242h8.473c1.511,0,2.736,0.139,3.673,0.417c0.94,0.278,1.672,0.661,2.205,1.147
		c0.53,0.486,0.886,1.055,1.068,1.708c0.182,0.651,0.274,1.351,0.274,2.099c0,0.504-0.096,0.973-0.289,1.408
		c-0.19,0.434-0.454,0.812-0.793,1.133c-0.339,0.322-0.739,0.592-1.199,0.808c-0.462,0.217-0.959,0.361-1.5,0.43
		c0.452,0.07,0.881,0.213,1.291,0.431c0.408,0.217,0.768,0.491,1.082,0.821c0.312,0.33,0.565,0.704,0.755,1.12
		c0.191,0.417,0.287,0.861,0.287,1.33c0,0.557,0.044,0.99,0.13,1.303c0.088,0.313,0.252,0.469,0.496,0.469
		c0.398,0,0.6-0.278,0.6-0.834v-0.861H149v1.435c0,0.539-0.062,1.06-0.184,1.563c-0.121,0.505-0.329,0.947-0.624,1.329
		c-0.295,0.382-0.686,0.691-1.172,0.926c-0.488,0.233-1.095,0.351-1.825,0.351c-1.722,0-2.994-0.425-3.819-1.277
		c-0.825-0.851-1.239-2.042-1.239-3.571c0-0.591-0.027-1.077-0.077-1.46c-0.053-0.381-0.17-0.681-0.352-0.899
		c-0.182-0.216-0.448-0.369-0.797-0.456c-0.347-0.087-0.806-0.13-1.381-0.13v4.04h1.59v3.44h-8.419v-3.44h1.459V22.656h-1.459
		V19.242z M137.53,22.63v4.431h1.172c0.766,0,1.373-0.178,1.825-0.535c0.452-0.356,0.678-0.882,0.678-1.577
		c0-0.783-0.203-1.364-0.613-1.747c-0.408-0.381-0.994-0.573-1.758-0.573H137.53z"/>
	<path fill="#FFFFFF" d="M101.98,17.882c0.942,1.141,1.66,2.496,2.062,4.021c1.492,5.631-1.865,11.406-7.496,12.895
		c-1.526,0.405-3.058,0.449-4.518,0.193c2.543,3.072,6.722,4.564,10.828,3.476c5.63-1.49,8.988-7.264,7.5-12.895
		C109.269,21.465,105.902,18.572,101.98,17.882z"/>
</g>
</svg>
